# xmcd CD database file
#
# Track frame offsets:
#	183
#	4738
#	14675
#	26595
#	38685
#	48775
#	58715
#	70655
#	83075
#	93275
#	103305
#	113873
#	124465
#	135155
#	146263
#	156968
#	166460
#	176840
#	189888
#	202470
#	211645
#	223680
#
# Disc length: 3055 seconds
#
# Revision: 2
# Processed by: cddbd v1.5.2PL0 Copyright (c) Steve Scherf et al.
# Submitted via: CDex 1.51
#
DISCID=330bed16
DTITLE=Nashville Music Company Und G ste - Country and Western Party
DYEAR=1900
DGENRE=
TTITLE0=Orange Blossom Special
TTITLE1=Deep In The Heart Of Texas
TTITLE2=Jackson
TTITLE3=Oh, Lonesome Me
TTITLE4=Bonanza
TTITLE5=Von den blauen Bergen kommen wir
TTITLE6=Blue Bayou
TTITLE7=On Top Of Old Smokey
TTITLE8=Some Broken Hearts Never Mend
TTITLE9=San Antonio Rose
TTITLE10=7000 Rinder
TTITLE11=El Rancho Grande
TTITLE12=Ghost Riders In The Sky
TTITLE13=Ring Of Fire
TTITLE14=El Paso
TTITLE15=Adios Amigo
TTITLE16=Tennessee Waltz
TTITLE17=Green, Green Grass Of Home
TTITLE18=Tom Dooley
TTITLE19=The Yellow Rose Of Texas
TTITLE20=Take Me Home Country Roads
TTITLE21=Orange Blossom Special
EXTD=
EXTT0=
EXTT1=
EXTT2=
EXTT3=
EXTT4=
EXTT5=
EXTT6=
EXTT7=
EXTT8=
EXTT9=
EXTT10=
EXTT11=
EXTT12=
EXTT13=
EXTT14=
EXTT15=
EXTT16=
EXTT17=
EXTT18=
EXTT19=
EXTT20=
EXTT21=
PLAYORDER=
